<svg width="23" height="22" viewBox="0 0 23 22" fill="none" xmlns="http://www.w3.org/2000/svg">
<g clip-path="url(#clip0_3_52)">
<path d="M7.44226 14.4031H19.5667C19.8669 14.4031 20.1303 14.2054 20.2115 13.9183L22.896 4.56486C22.9537 4.36321 22.9141 4.14661 22.7871 3.97906C22.6599 3.81203 22.4621 3.71339 22.251 3.71339H5.89301L5.41329 1.56436C5.34513 1.25832 5.0725 1.04102 4.75793 1.04102H0.686707C0.315864 1.04102 0.015625 1.33992 0.015625 1.70911C0.015625 2.07848 0.315864 2.3772 0.686707 2.3772H4.21932L6.64273 13.2337C5.9297 13.5424 5.42902 14.249 5.42902 15.0712C5.42902 16.1763 6.33218 17.0754 7.44226 17.0754H19.5667C19.9377 17.0754 20.2377 16.7767 20.2377 16.4073C20.2377 16.0381 19.9377 15.7392 19.5667 15.7392H7.44226C7.07264 15.7392 6.77118 15.4398 6.77118 15.0712C6.77118 14.7025 7.07264 14.4031 7.44226 14.4031Z" fill="white"/>
<path d="M6.77118 19.0795C6.77118 20.1848 7.67434 21.0838 8.7846 21.0838C9.89471 21.0838 10.7979 20.1848 10.7979 19.0795C10.7979 17.9744 9.89471 17.0752 8.7846 17.0752C7.67434 17.0752 6.77118 17.9744 6.77118 19.0795Z" fill="white"/>
<path d="M16.2112 19.0795C16.2112 20.1848 17.1144 21.0838 18.2244 21.0838C19.3346 21.0838 20.2376 20.1848 20.2376 19.0795C20.2376 17.9744 19.3346 17.0752 18.2244 17.0752C17.1144 17.0752 16.2112 17.9744 16.2112 19.0795Z" fill="white"/>
</g>
<defs>
<clipPath id="clip0_3_52">
<rect width="22.9062" height="20.9974" fill="white" transform="translate(0.015625 0.563797)"/>
</clipPath>
</defs>
</svg>
