<svg width="15" height="15" viewBox="0 0 15 15" fill="none" xmlns="http://www.w3.org/2000/svg">
<g clip-path="url(#clip0_3_27)">
<path d="M7.59669 0.192983C5.69421 0.192983 5.45494 0.201733 4.70796 0.233817C3.96391 0.268818 3.45328 0.388404 3.00976 0.560492C2.54251 0.736412 2.1193 1.01214 1.76966 1.36843C1.41323 1.71793 1.13739 2.14098 0.961403 2.60804C0.786331 3.05139 0.669615 3.56181 0.6346 4.30559C0.602504 5.05227 0.59375 5.29144 0.59375 7.19317C0.59375 9.08905 0.602504 9.33111 0.6346 10.0749C0.669615 10.8216 0.789248 11.3291 0.961403 11.7754C1.13739 12.2424 1.41323 12.6655 1.76966 13.015C2.1193 13.3712 2.54251 13.647 3.00976 13.8229C3.45328 13.995 3.96391 14.1146 4.70796 14.1467C5.45494 14.1817 5.69421 14.1875 7.59669 14.1875C9.49327 14.1875 9.73547 14.1817 10.4796 14.1467C11.2265 14.1117 11.7343 13.995 12.1806 13.8229C12.6479 13.647 13.0711 13.3712 13.4208 13.015C13.7772 12.6655 14.053 12.2424 14.229 11.7754C14.4012 11.3291 14.5208 10.8216 14.5529 10.0749C14.5879 9.33111 14.5938 9.09199 14.5938 7.19023C14.5938 5.29144 14.5879 5.05227 14.5529 4.30559C14.5179 3.56181 14.4012 3.05139 14.229 2.60804C14.053 2.14098 13.7772 1.71793 13.4208 1.36843C13.0711 1.01214 12.6479 0.736412 12.1806 0.560492C11.7343 0.385488 11.2265 0.268818 10.4796 0.233817C9.51917 0.192319 8.55779 0.178702 7.59669 0.192983ZM7.59669 1.45302C9.46408 1.45302 9.68584 1.46177 10.4241 1.49385C11.1069 1.52594 11.4745 1.63968 11.7226 1.73593C12.0494 1.86136 12.2828 2.01303 12.5279 2.26095C12.7607 2.48577 12.9401 2.75985 13.0531 3.06306C13.1465 3.31098 13.2632 3.6814 13.2924 4.36392C13.3274 5.10186 13.3332 5.32353 13.3332 7.19317C13.3332 9.05986 13.3274 9.28155 13.2924 10.0195C13.2632 10.702 13.1465 11.0695 13.0531 11.3174C12.9405 11.6217 12.761 11.8968 12.5279 12.1224C12.3022 12.3555 12.0269 12.5349 11.7226 12.6474C11.4774 12.7408 11.1069 12.8575 10.4241 12.8866C9.68584 12.9216 9.46121 12.9275 7.59375 12.9275C5.7263 12.9275 5.50454 12.9216 4.7634 12.8866C4.08354 12.8575 3.71296 12.7408 3.46495 12.6474C3.16057 12.5349 2.88536 12.3555 2.65961 12.1224C2.42647 11.8968 2.24698 11.6217 2.13439 11.3174C2.04102 11.0724 1.92722 10.702 1.89513 10.0195C1.85402 9.07701 1.8404 8.13355 1.85427 7.19023C1.85427 5.32353 1.86303 5.10186 1.89513 4.361C1.92722 3.6814 2.04102 3.31098 2.13731 3.06306C2.2499 2.7588 2.42939 2.4837 2.66253 2.25804C2.88744 2.02535 3.16162 1.84595 3.46495 1.73302C3.71296 1.63969 4.08354 1.52594 4.76632 1.49385C5.50454 1.46177 5.7263 1.45302 7.59669 1.45302ZM7.59669 3.59681C6.64326 3.59681 5.7289 3.97541 5.05474 4.64931C4.38058 5.3232 4.00184 6.23721 4.00184 7.19023C4.00184 8.14328 4.38058 9.05727 5.05474 9.73116C5.7289 10.405 6.64326 10.7837 7.59669 10.7837C8.55009 10.7837 9.46443 10.405 10.1386 9.73116C10.8128 9.05727 11.1915 8.14328 11.1915 7.19023C11.1915 6.23721 10.8128 5.3232 10.1386 4.64931C9.46443 3.97541 8.55009 3.59681 7.59669 3.59681ZM7.59669 9.52655C6.97757 9.52655 6.38383 9.28071 5.94606 8.84314C5.5083 8.4055 5.26236 7.81204 5.26236 7.19317C5.26236 6.57431 5.5083 5.9808 5.94606 5.5432C6.38383 5.1056 6.97757 4.85977 7.59669 4.85977C8.21577 4.85977 8.80951 5.1056 9.24729 5.5432C9.68507 5.9808 9.93098 6.57431 9.93098 7.19317C9.93098 7.81204 9.68507 8.4055 9.24729 8.84314C8.80951 9.28071 8.21577 9.52655 7.59669 9.52655ZM12.1719 3.45973C12.1719 3.23694 12.0833 3.02328 11.9258 2.86575C11.7682 2.70821 11.5544 2.61971 11.3315 2.61971C11.1087 2.61971 10.8949 2.70821 10.7373 2.86575C10.5797 3.02328 10.4912 3.23694 10.4912 3.45973C10.4912 3.68252 10.5797 3.89618 10.7373 4.05372C10.8949 4.21125 11.1087 4.29976 11.3315 4.29976C11.5544 4.29976 11.7682 4.21125 11.9258 4.05372C12.0833 3.89618 12.1719 3.68252 12.1719 3.45973Z" fill="#E1306C"/>
</g>
<defs>
<clipPath id="clip0_3_27">
<rect width="14" height="14" fill="white" transform="translate(0.59375 0.1875)"/>
</clipPath>
</defs>
</svg>
