<svg width="14" height="21" viewBox="0 0 14 21" fill="none" xmlns="http://www.w3.org/2000/svg">
<g clip-path="url(#clip0_3_8)">
<path d="M6.51463 19.9266C6.62282 20.0896 6.80497 20.1875 7 20.1875C7.19503 20.1875 7.37718 20.0896 7.48537 19.9266C8.86589 17.8466 10.8993 15.2778 12.3162 12.6653C13.4492 10.5764 14 8.79477 14 7.21875C14 3.34172 10.8598 0.1875 7 0.1875C3.1402 0.1875 0 3.34172 0 7.21875C0 8.79477 0.550783 10.5764 1.68377 12.6653C3.09968 15.2758 5.13695 17.8509 6.51463 19.9266ZM7 1.35938C10.2165 1.35938 12.8333 3.98789 12.8333 7.21875C12.8333 8.59391 12.3291 10.1921 11.2917 12.1046C10.0704 14.3566 8.32743 16.6409 7 18.5613C5.67276 16.6412 3.92972 14.3567 2.70826 12.1046C1.67094 10.1921 1.16667 8.59391 1.16667 7.21875C1.16667 3.98789 3.7835 1.35938 7 1.35938Z" fill="#FF7010"/>
<path d="M7 10.7344C8.9299 10.7344 10.5 9.15727 10.5 7.21875C10.5 5.28023 8.9299 3.70312 7 3.70312C5.0701 3.70312 3.5 5.28023 3.5 7.21875C3.5 9.15727 5.0701 10.7344 7 10.7344ZM7 4.875C8.2866 4.875 9.33333 5.92641 9.33333 7.21875C9.33333 8.51109 8.2866 9.5625 7 9.5625C5.7134 9.5625 4.66667 8.51109 4.66667 7.21875C4.66667 5.92641 5.7134 4.875 7 4.875Z" fill="#FF7010"/>
</g>
<defs>
<clipPath id="clip0_3_8">
<rect width="14" height="20" fill="white" transform="translate(0 0.1875)"/>
</clipPath>
</defs>
</svg>
