<svg width="146" height="43" viewBox="0 0 146 43" fill="none" xmlns="http://www.w3.org/2000/svg">
<path d="M10.2238 42.4173C8.23128 42.4173 6.53851 42.0381 5.1455 41.2799C3.77011 40.504 2.72095 39.402 1.99799 37.9737C1.29267 36.5455 0.940002 34.8438 0.940002 32.869C0.940002 31.3878 1.14278 30.0653 1.54834 28.9015C1.95391 27.7202 2.54461 26.7151 3.32047 25.8863C4.11396 25.0399 5.06615 24.3962 6.17703 23.9554C7.30554 23.5147 8.57513 23.2942 9.98578 23.2942C11.079 23.2942 12.137 23.444 13.1597 23.7438C14.1825 24.0259 15.117 24.4933 15.9634 25.1457C16.175 25.3044 16.3073 25.4895 16.3602 25.7011C16.4306 25.9127 16.4395 26.1243 16.3866 26.3359C16.3337 26.5475 16.2279 26.7326 16.0692 26.8913C15.9281 27.05 15.7429 27.147 15.5138 27.1823C15.3022 27.1999 15.073 27.1294 14.8261 26.9707C14.1031 26.4417 13.3449 26.0625 12.5514 25.8334C11.7755 25.6042 10.9203 25.4895 9.98578 25.4895C8.59277 25.4895 7.41134 25.7805 6.44153 26.3623C5.47171 26.9267 4.73993 27.7642 4.24621 28.8751C3.77011 29.9684 3.53207 31.2996 3.53207 32.869C3.53207 35.2848 4.09633 37.1185 5.22484 38.3705C6.371 39.6225 8.06378 40.2484 10.3032 40.2484C11.1319 40.2484 11.9342 40.1691 12.7101 40.0104C13.5036 39.8517 14.2618 39.6312 14.9848 39.3491L14.4558 40.6716V34.2972H10.8586C10.5412 34.2972 10.2855 34.209 10.0916 34.0327C9.91525 33.8565 9.82708 33.6184 9.82708 33.3186C9.82708 33.0188 9.91525 32.7896 10.0916 32.6309C10.2855 32.4722 10.5412 32.3929 10.8586 32.3929H15.5402C15.8576 32.3929 16.1045 32.4811 16.2808 32.6574C16.4748 32.8336 16.5718 33.0894 16.5718 33.4244V40.222C16.5718 40.504 16.5189 40.751 16.4131 40.9625C16.3073 41.1566 16.131 41.2975 15.8841 41.3857C15.1435 41.6856 14.2618 41.9323 13.2391 42.1263C12.2164 42.3204 11.2113 42.4173 10.2238 42.4173ZM21.9805 42.3644C21.575 42.3644 21.2663 42.2586 21.0547 42.047C20.8431 41.8354 20.7373 41.5269 20.7373 41.1212V30.3298C20.7373 29.9242 20.8431 29.6245 21.0547 29.4305C21.2663 29.2189 21.5573 29.1131 21.9276 29.1131C22.2979 29.1131 22.5801 29.2189 22.7739 29.4305C22.9855 29.6245 23.0913 29.9242 23.0913 30.3298V32.3664H22.8268C23.1091 31.3084 23.6381 30.5061 24.4138 29.9595C25.1897 29.4129 26.1684 29.1042 27.3497 29.0338C27.632 29.0162 27.8611 29.0867 28.0374 29.2454C28.2139 29.3865 28.3108 29.6332 28.3284 29.9859C28.3461 30.3209 28.2668 30.5943 28.0903 30.8059C27.9141 30.9999 27.6407 31.1144 27.2704 31.1497L26.7943 31.1762C25.6305 31.2996 24.7312 31.6787 24.0964 32.3135C23.4794 32.9483 23.1707 33.8211 23.1707 34.932V41.1212C23.1707 41.5269 23.0649 41.8354 22.8533 42.047C22.6594 42.2586 22.3685 42.3644 21.9805 42.3644ZM34.5005 42.4173C33.6188 42.4173 32.8164 42.241 32.0936 41.8883C31.3882 41.5356 30.8327 41.0595 30.4273 40.46C30.0392 39.8605 29.8454 39.1904 29.8454 38.4498C29.8454 37.4976 30.0834 36.7482 30.5595 36.2016C31.0356 35.655 31.8378 35.267 32.9664 35.0378C34.0949 34.7909 35.6114 34.6675 37.5158 34.6675H38.7589V36.2016H37.5687C36.2109 36.2016 35.1353 36.2634 34.3418 36.3868C33.5659 36.5101 33.0193 36.7306 32.7019 37.048C32.3846 37.3478 32.2259 37.771 32.2259 38.3176C32.2259 39.0053 32.4639 39.5696 32.94 40.0104C33.4337 40.4511 34.1038 40.6716 34.9502 40.6716C35.6201 40.6716 36.2109 40.5129 36.7223 40.1955C37.2335 39.8605 37.6392 39.4196 37.939 38.873C38.2386 38.3087 38.3886 37.6652 38.3886 36.9422V33.9005C38.3886 32.8601 38.177 32.1108 37.7538 31.6523C37.3306 31.1762 36.6165 30.9381 35.6114 30.9381C35.0295 30.9381 34.4299 31.0175 33.8128 31.1762C33.1956 31.3349 32.552 31.5818 31.882 31.9168C31.6175 32.0401 31.3882 32.0843 31.1943 32.049C31.0003 31.9961 30.8416 31.8903 30.7182 31.7316C30.6124 31.5554 30.5507 31.3702 30.5331 31.1762C30.5331 30.9646 30.5771 30.7619 30.6653 30.5678C30.7711 30.3738 30.9474 30.2329 31.1943 30.1446C31.9701 29.7568 32.7371 29.4834 33.4954 29.3247C34.2712 29.1484 34.9942 29.0602 35.6643 29.0602C36.8103 29.0602 37.7538 29.2454 38.4944 29.6157C39.235 29.9684 39.7905 30.5238 40.1607 31.282C40.531 32.0226 40.7162 32.9748 40.7162 34.1385V41.1212C40.7162 41.5269 40.6191 41.8354 40.4252 42.047C40.2312 42.2586 39.9492 42.3644 39.5789 42.3644C39.2261 42.3644 38.9441 42.2586 38.7325 42.047C38.5384 41.8354 38.4415 41.5269 38.4415 41.1212V39.2433H38.6796C38.5384 39.8957 38.2739 40.46 37.8861 40.9361C37.498 41.4122 37.0132 41.7825 36.4313 42.047C35.867 42.2939 35.2234 42.4173 34.5005 42.4173ZM52.855 42.3644C52.4847 42.3644 52.1938 42.2586 51.9822 42.047C51.7706 41.8354 51.6648 41.5269 51.6648 41.1212V30.3298C51.6648 29.9242 51.7706 29.6245 51.9822 29.4305C52.1938 29.2189 52.4847 29.1131 52.855 29.1131C53.2253 29.1131 53.5076 29.2189 53.7014 29.4305C53.913 29.6245 54.0188 29.9242 54.0188 30.3298V32.4987L53.7279 32.1019C54.0982 31.0968 54.6978 30.3387 55.5265 29.8273C56.3728 29.3158 57.3339 29.0602 58.4095 29.0602C59.4499 29.0602 60.3051 29.2454 60.9751 29.6157C61.6452 29.9859 62.1477 30.5503 62.4827 31.3084C62.8179 32.0666 62.9852 33.0277 62.9852 34.1914V41.1212C62.9852 41.5269 62.8795 41.8354 62.6679 42.047C62.474 42.2586 62.1831 42.3644 61.795 42.3644C61.4072 42.3644 61.1073 42.2586 60.8957 42.047C60.6841 41.8354 60.5783 41.5269 60.5783 41.1212V34.3237C60.5783 33.1775 60.358 32.34 59.9171 31.811C59.4763 31.282 58.7711 31.0175 57.8011 31.0175C56.6727 31.0175 55.7645 31.3702 55.0768 32.0755C54.4069 32.7632 54.0717 33.6978 54.0717 34.8791V41.1212C54.0717 41.9501 53.6663 42.3644 52.855 42.3644ZM79.4371 42.4173C78.1675 42.4173 77.0655 42.1439 76.1309 41.5973C75.1965 41.0508 74.4734 40.2749 73.962 39.2698C73.4508 38.2647 73.195 37.0833 73.195 35.7255C73.195 34.7029 73.3361 33.7858 73.6182 32.9748C73.918 32.1459 74.3412 31.4407 74.8878 30.8588C75.4345 30.2769 76.0869 29.8361 76.845 29.5363C77.6209 29.2189 78.4849 29.0602 79.4371 29.0602C80.7067 29.0602 81.8089 29.3336 82.7433 29.8802C83.6779 30.4267 84.4009 31.2026 84.9122 32.2077C85.4236 33.1952 85.6792 34.3677 85.6792 35.7255C85.6792 36.7482 85.5294 37.6739 85.2296 38.5027C84.9475 39.3315 84.5332 40.0368 83.9864 40.6187C83.4399 41.2006 82.7786 41.6502 82.0027 41.9676C81.2446 42.2675 80.3893 42.4173 79.4371 42.4173ZM79.4371 40.5129C80.213 40.5129 80.8831 40.3278 81.4473 39.9575C82.0292 39.5872 82.4701 39.0493 82.7698 38.344C83.0872 37.6388 83.2458 36.7659 83.2458 35.7255C83.2458 34.1739 82.902 32.9923 82.2143 32.1813C81.5266 31.3702 80.6009 30.9646 79.4371 30.9646C78.6789 30.9646 78.0088 31.1497 77.4269 31.52C76.8628 31.8727 76.4218 32.4017 76.1044 33.107C75.787 33.8123 75.6283 34.6851 75.6283 35.7255C75.6283 37.2772 75.9722 38.4674 76.6599 39.2962C77.3653 40.1073 78.2911 40.5129 79.4371 40.5129ZM90.7229 42.3644C90.335 42.3644 90.0352 42.2586 89.8236 42.047C89.612 41.8354 89.5062 41.5269 89.5062 41.1212V31.1497H87.9192C87.6018 31.1497 87.3549 31.0704 87.1787 30.9117C87.0024 30.7354 86.9142 30.5061 86.9142 30.224C86.9142 29.9242 87.0024 29.695 87.1787 29.5363C87.3549 29.3776 87.6018 29.2983 87.9192 29.2983H90.1675L89.5062 29.933V28.9544C89.5062 27.2441 89.9205 25.948 90.7494 25.0663C91.5957 24.167 92.83 23.6469 94.4523 23.5058L95.2723 23.4529C95.5368 23.4176 95.7484 23.4618 95.9071 23.5851C96.0658 23.6909 96.1715 23.8321 96.2244 24.0083C96.2773 24.1846 96.2773 24.3698 96.2244 24.5638C96.1891 24.74 96.1098 24.8987 95.9864 25.0399C95.863 25.181 95.7043 25.2603 95.5103 25.2779L94.9284 25.3044C93.8704 25.3926 93.1034 25.71 92.6273 26.2565C92.1512 26.7855 91.9131 27.579 91.9131 28.637V29.695L91.5693 29.2983H94.611C94.946 29.2983 95.2018 29.3776 95.3781 29.5363C95.5543 29.695 95.6425 29.9242 95.6425 30.224C95.6425 30.5061 95.5543 30.7354 95.3781 30.9117C95.2018 31.0704 94.946 31.1497 94.611 31.1497H91.9131V41.1212C91.9131 41.9501 91.5164 42.3644 90.7229 42.3644ZM106.159 42.3644C105.753 42.3644 105.444 42.2586 105.233 42.047C105.021 41.8354 104.915 41.5269 104.915 41.1212V30.3298C104.915 29.9242 105.021 29.6245 105.233 29.4305C105.444 29.2189 105.735 29.1131 106.106 29.1131C106.476 29.1131 106.758 29.2189 106.952 29.4305C107.164 29.6245 107.269 29.9242 107.269 30.3298V32.3664H107.005C107.287 31.3084 107.816 30.5061 108.592 29.9595C109.368 29.4129 110.346 29.1042 111.528 29.0338C111.81 29.0162 112.039 29.0867 112.216 29.2454C112.392 29.3865 112.489 29.6332 112.507 29.9859C112.524 30.3209 112.445 30.5943 112.268 30.8059C112.092 30.9999 111.819 31.1144 111.449 31.1497L110.972 31.1762C109.809 31.2996 108.909 31.6787 108.275 32.3135C107.657 32.9483 107.349 33.8211 107.349 34.932V41.1212C107.349 41.5269 107.243 41.8354 107.031 42.047C106.837 42.2586 106.546 42.3644 106.159 42.3644ZM127.318 42.4173C126.013 42.4173 124.884 42.1439 123.932 41.5973C122.98 41.033 122.248 40.2484 121.737 39.2433C121.225 38.2207 120.97 37.0216 120.97 35.6462C120.97 34.6235 121.111 33.7065 121.393 32.8954C121.693 32.0843 122.116 31.3967 122.662 30.8323C123.209 30.2504 123.87 29.8097 124.646 29.5099C125.44 29.21 126.33 29.0602 127.318 29.0602C127.935 29.0602 128.587 29.1571 129.275 29.3512C129.963 29.5452 130.597 29.8626 131.179 30.3033C131.373 30.4445 131.497 30.6119 131.55 30.8059C131.602 30.9822 131.602 31.1673 131.55 31.3613C131.514 31.5554 131.426 31.7228 131.285 31.8639C131.162 31.9872 130.994 32.0579 130.783 32.0755C130.589 32.093 130.377 32.0314 130.148 31.8903C129.725 31.5729 129.275 31.3438 128.799 31.2026C128.34 31.0615 127.9 30.991 127.476 30.991C126.824 30.991 126.242 31.0968 125.731 31.3084C125.237 31.52 124.814 31.8286 124.461 32.2342C124.126 32.622 123.87 33.107 123.694 33.6889C123.518 34.2532 123.43 34.9145 123.43 35.6726C123.43 37.1714 123.782 38.3529 124.488 39.2169C125.193 40.0633 126.189 40.4865 127.476 40.4865C127.9 40.4865 128.34 40.4247 128.799 40.3013C129.257 40.1602 129.707 39.931 130.148 39.6136C130.377 39.4725 130.589 39.4196 130.783 39.4549C130.977 39.4725 131.135 39.5518 131.259 39.693C131.4 39.8163 131.488 39.975 131.523 40.1691C131.558 40.3453 131.541 40.5305 131.47 40.7245C131.417 40.9185 131.294 41.0772 131.1 41.2006C130.536 41.6238 129.919 41.9323 129.248 42.1263C128.578 42.3204 127.935 42.4173 127.318 42.4173ZM139.857 42.4173C138.464 42.4173 137.265 42.1528 136.26 41.6238C135.272 41.0772 134.505 40.3102 133.959 39.3227C133.412 38.3176 133.139 37.1362 133.139 35.7784C133.139 34.4384 133.403 33.2657 133.932 32.2606C134.479 31.2555 135.219 30.4709 136.154 29.9066C137.106 29.3423 138.19 29.0602 139.407 29.0602C140.271 29.0602 141.047 29.21 141.735 29.5099C142.44 29.7919 143.04 30.2064 143.533 30.753C144.027 31.2996 144.397 31.9697 144.644 32.7632C144.909 33.5391 145.041 34.4206 145.041 35.4081C145.041 35.6902 144.953 35.9107 144.776 36.0694C144.618 36.2105 144.38 36.281 144.062 36.281H135.017V34.7469H143.454L143.004 35.1172C143.004 34.2003 142.863 33.4244 142.581 32.7896C142.317 32.1372 141.92 31.6434 141.391 31.3084C140.88 30.9735 140.236 30.8059 139.46 30.8059C138.614 30.8059 137.891 31.0086 137.291 31.4142C136.692 31.8021 136.233 32.3575 135.916 33.0806C135.598 33.7858 135.44 34.6058 135.44 35.5404V35.6991C135.44 37.286 135.819 38.4852 136.577 39.2962C137.335 40.1073 138.429 40.5129 139.857 40.5129C140.421 40.5129 140.994 40.4424 141.576 40.3013C142.176 40.1602 142.749 39.9046 143.295 39.5343C143.56 39.3756 143.798 39.3051 144.009 39.3227C144.239 39.3227 144.424 39.3931 144.565 39.5343C144.706 39.6576 144.794 39.8163 144.829 40.0104C144.865 40.1866 144.838 40.3807 144.75 40.5923C144.662 40.8039 144.494 40.989 144.247 41.1477C143.666 41.5533 142.969 41.8707 142.158 42.0999C141.364 42.3115 140.597 42.4173 139.857 42.4173Z" fill="#EF7934"/>
<path d="M45.78 29.2104H45.4387C44.8733 29.2104 44.4149 29.6688 44.4149 30.2342V41.1554C44.4149 41.7208 44.8733 42.1792 45.4387 42.1792H45.78C46.3455 42.1792 46.8039 41.7208 46.8039 41.1554V30.2342C46.8039 29.6688 46.3455 29.2104 45.78 29.2104Z" fill="#EF7934"/>
<path d="M116.767 29.381H116.426C115.861 29.381 115.402 29.8394 115.402 30.4049V41.326C115.402 41.8915 115.861 42.3499 116.426 42.3499H116.767C117.333 42.3499 117.791 41.8915 117.791 41.326V30.4049C117.791 29.8394 117.333 29.381 116.767 29.381Z" fill="#EF7934"/>
<path d="M78.4827 0.0784149L44.8123 21.5229C44.4266 22.6174 45.2215 22.6976 45.667 22.601L79.7448 2.13L80.0195 0.534611L78.4827 0.0784149Z" fill="black"/>
<path d="M87.1541 13.84L48.8519 25.0882C48.1776 26.0325 48.9188 26.3303 49.3736 26.3612L87.7966 16.1615L88.5035 14.7051L87.1541 13.84Z" fill="black"/>
<path fill-rule="evenodd" clip-rule="evenodd" d="M45.3041 27.0639C46.3797 26.753 47.0702 26.1212 47.5052 25.4339C47.9043 24.8033 48.0898 24.1227 48.1479 23.598C47.1167 23.7081 46.4374 24.2881 45.9908 25.0161C45.5885 25.6717 45.3823 26.4403 45.3041 27.0639ZM45.4089 24.6592C46.0025 23.6918 46.987 22.8966 48.5103 22.8966H48.8516V23.2379C48.8516 23.892 48.6584 24.8882 48.082 25.7989C47.4987 26.7204 46.525 27.5492 44.9902 27.8393L44.5724 27.9182L44.5857 27.4933C44.6091 26.7401 44.8247 25.6115 45.4089 24.6592Z" fill="black"/>
<path fill-rule="evenodd" clip-rule="evenodd" d="M115.95 27.4052C117.026 27.0943 117.716 26.4625 118.151 25.7752C118.55 25.1446 118.736 24.4639 118.794 23.9393C117.763 24.0494 117.084 24.6294 116.637 25.3574C116.235 26.013 116.028 26.7816 115.95 27.4052ZM116.055 25.0005C116.649 24.0331 117.633 23.2379 119.156 23.2379H119.498V23.5792C119.498 24.2333 119.305 25.2294 118.728 26.1402C118.145 27.0617 117.171 27.8905 115.636 28.1806L115.219 28.2595L115.232 27.8346C115.255 27.0814 115.471 25.9528 116.055 25.0005Z" fill="black"/>
</svg>
