<svg width="49" height="49" viewBox="0 0 49 49" fill="none" xmlns="http://www.w3.org/2000/svg">
<g clip-path="url(#clip0_104_4)">
<path d="M36.751 15.748C35.289 15.748 33.894 15.856 32.608 16.052C31.52 16.218 30.661 15.723 30.661 14.845V13.255C30.661 10.749 25.489 8.71799 19.11 8.71799C12.731 8.71799 7.56 10.748 7.56 13.255V19.277C7.56 20.201 6.673 21.067 5.61 21.318C2.251 22.11 0 23.552 0 25.205V35.046C0 37.555 5.171 39.585 11.55 39.585C17.929 39.585 23.1 37.555 23.1 35.048V29.025C23.1 28.101 23.577 27.285 24.157 27.173C24.737 27.061 25.2 27.658 25.2 28.536V30.126C25.2 32.632 30.372 34.663 36.75 34.663C43.129 34.663 48.302 32.632 48.302 30.126V20.285C48.302 17.78 43.13 15.748 36.751 15.748ZM11.55 29.274C6.654 29.274 2.684 27.714 2.684 25.791C2.684 23.868 6.653 22.308 11.55 22.308C16.447 22.308 20.416 23.867 20.416 25.791C20.416 27.715 16.446 29.274 11.55 29.274ZM19.111 17.325C14.214 17.325 10.245 15.766 10.245 13.842C10.244 11.918 14.214 10.359 19.111 10.359C24.008 10.359 27.978 11.918 27.978 13.842C27.977 15.766 24.008 17.325 19.111 17.325ZM36.752 24.355C31.856 24.355 27.886 22.796 27.886 20.872C27.886 18.948 31.855 17.389 36.752 17.389C41.649 17.389 45.619 18.948 45.619 20.872C45.619 22.796 41.649 24.355 36.752 24.355Z" fill="#FF7010"/>
<path d="M16.472 24.339C15.784 24.058 14.97 24.256 14.562 24.775C14.459 24.83 14.287 24.892 14.049 24.953C14.008 24.828 13.946 24.707 13.865 24.592C13.377 23.905 12.25 23.523 10.514 23.459C9.55698 23.421 6.33098 23.415 5.50298 24.837C5.21698 25.327 5.24498 25.879 5.57998 26.35C6.33898 27.417 8.47198 27.714 10.128 27.776C10.23 27.78 10.466 27.787 10.795 27.787C12.407 27.787 16.23 27.614 17.161 26.018C17.524 25.393 17.217 24.643 16.472 24.339Z" fill="#FF7010"/>
<path d="M18.718 15.189C21.4269 15.189 23.623 14.4498 23.623 13.538C23.623 12.6262 21.4269 11.887 18.718 11.887C16.009 11.887 13.813 12.6262 13.813 13.538C13.813 14.4498 16.009 15.189 18.718 15.189Z" fill="#FF7010"/>
<path d="M36.789 22.328C39.498 22.328 41.694 21.5888 41.694 20.677C41.694 19.7652 39.498 19.026 36.789 19.026C34.0801 19.026 31.884 19.7652 31.884 20.677C31.884 21.5888 34.0801 22.328 36.789 22.328Z" fill="#FF7010"/>
</g>
<defs>
<clipPath id="clip0_104_4">
<rect width="48.302" height="48.302" fill="white"/>
</clipPath>
</defs>
</svg>
