<svg width="58" height="58" viewBox="0 0 58 58" fill="none" xmlns="http://www.w3.org/2000/svg">
<path d="M44.1298 13.2096C42.3743 13.2096 40.6992 13.4125 39.155 13.7808C37.8485 14.0927 36.8171 13.1626 36.8171 11.5128V8.52516C36.8171 3.81631 30.6066 0 22.9469 0C15.2871 0 9.07789 3.81443 9.07789 8.52516V19.8407C9.07789 21.5769 8.01279 23.2041 6.73637 23.6758C2.70295 25.164 0 27.8735 0 30.9796V49.4711C0 54.1856 6.20923 58 13.869 58C21.5288 58 27.738 54.1856 27.738 49.4748V38.1575C27.738 36.4212 28.3108 34.8879 29.0072 34.6775C29.7037 34.467 30.2596 35.5888 30.2596 37.2386V40.2263C30.2596 44.9351 36.47 48.7514 44.1286 48.7514C51.7884 48.7514 58 44.9351 58 40.2263V21.7347C58 17.0278 51.7896 13.2096 44.1298 13.2096ZM13.869 38.6253C7.98998 38.6253 3.22289 35.694 3.22289 32.0807C3.22289 28.4673 7.98878 25.536 13.869 25.536C19.7492 25.536 24.5151 28.4654 24.5151 32.0807C24.5151 35.6959 19.748 38.6253 13.869 38.6253ZM22.9481 16.1728C17.0679 16.1728 12.302 13.2434 12.302 9.62815C12.3008 6.01289 17.0679 3.08349 22.9481 3.08349C28.8283 3.08349 33.5954 6.01289 33.5954 9.62815C33.5942 13.2434 28.8283 16.1728 22.9481 16.1728ZM44.131 29.3824C38.252 29.3824 33.4849 26.453 33.4849 22.8377C33.4849 19.2225 38.2508 16.2931 44.131 16.2931C50.0112 16.2931 54.7783 19.2225 54.7783 22.8377C54.7783 26.453 50.0112 29.3824 44.131 29.3824Z" fill="#FF7010"/>
<path d="M19.7793 29.3523C18.9532 28.8243 17.9757 29.1963 17.4858 30.1715C17.3621 30.2749 17.1556 30.3914 16.8698 30.506C16.8206 30.2711 16.7461 30.0437 16.6489 29.8277C16.0629 28.5368 14.7096 27.819 12.6251 27.6987C11.4759 27.6273 7.6022 27.616 6.60796 30.288C6.26454 31.2087 6.29816 32.246 6.70042 33.131C7.61181 35.1359 10.1731 35.694 12.1616 35.8105C12.284 35.818 12.5674 35.8312 12.9625 35.8312C14.8981 35.8312 19.4887 35.5061 20.6066 32.5072C21.0425 31.3328 20.6739 29.9235 19.7793 29.3523Z" fill="#FF7010"/>
<path d="M22.4761 12.1593C25.729 12.1593 28.3659 10.7703 28.3659 9.05699C28.3659 7.34365 25.729 5.95471 22.4761 5.95471C19.2233 5.95471 16.5863 7.34365 16.5863 9.05699C16.5863 10.7703 19.2233 12.1593 22.4761 12.1593Z" fill="#FF7010"/>
<path d="M44.1755 25.5736C47.4283 25.5736 50.0653 24.1846 50.0653 22.4713C50.0653 20.758 47.4283 19.369 44.1755 19.369C40.9226 19.369 38.2856 20.758 38.2856 22.4713C38.2856 24.1846 40.9226 25.5736 44.1755 25.5736Z" fill="#FF7010"/>
</svg>
