<svg width="14" height="15" viewBox="0 0 14 15" fill="none" xmlns="http://www.w3.org/2000/svg">
<g clip-path="url(#clip0_3_19)">
<path d="M2.83704 9.49379C4.22313 11.1444 5.89167 12.444 7.79611 13.3636C8.52117 13.706 9.49081 14.1121 10.5712 14.1817C10.6382 14.1846 10.7022 14.1875 10.7692 14.1875C11.4943 14.1875 12.0767 13.938 12.5513 13.4246C12.5542 13.4216 12.56 13.4158 12.563 13.41C12.7318 13.207 12.924 13.0242 13.1249 12.8298C13.2618 12.6993 13.4016 12.5629 13.5355 12.4237C14.1558 11.7797 14.1558 10.9616 13.5297 10.3379L11.7796 8.59443C11.4826 8.28699 11.1273 8.12452 10.7547 8.12452C10.3819 8.12452 10.0237 8.28699 9.71796 8.59156L8.67552 9.63008C8.57941 9.57499 8.48043 9.52564 8.38719 9.47923C8.27071 9.4212 8.16298 9.36611 8.06687 9.30521C7.1176 8.70468 6.25567 7.92145 5.43159 6.91481C5.01518 6.38974 4.73563 5.94879 4.54053 5.49915C4.81425 5.25257 5.07051 4.99438 5.31802 4.74199C5.40538 4.65206 5.49564 4.56214 5.58592 4.47221C5.9004 4.15891 6.0693 3.79629 6.0693 3.42786C6.0693 3.05945 5.90332 2.69682 5.58592 2.38352L4.71815 1.51904C4.61624 1.4175 4.52014 1.31887 4.42114 1.21734C4.22895 1.02007 4.02802 0.817007 3.83001 0.634247C3.53008 0.341251 3.17773 0.1875 2.805 0.1875C2.43519 0.1875 2.07993 0.341251 1.76835 0.637148L0.679282 1.7221C0.283257 2.11664 0.0590366 2.59529 0.0124455 3.14937C-0.0428816 3.8427 0.0852439 4.57954 0.417206 5.47013C0.9268 6.84809 1.69555 8.12739 2.83704 9.49379ZM0.72296 3.2103C0.757904 2.82446 0.906416 2.50246 1.18596 2.22397L2.2692 1.14481C2.4381 0.982364 2.62447 0.898231 2.805 0.898231C2.98264 0.898231 3.16317 0.982364 3.32916 1.15062C3.52425 1.33047 3.70771 1.51904 3.90572 1.7192C4.00473 1.82074 4.10665 1.92227 4.20857 2.0267L5.07632 2.89119C5.25687 3.07104 5.35005 3.25381 5.35005 3.43367C5.35005 3.61352 5.25687 3.79629 5.07632 3.97615C4.98606 4.06607 4.89579 4.15891 4.80551 4.24884C4.5347 4.52152 4.28136 4.77971 4.00182 5.02629C3.99599 5.03209 3.99308 5.03499 3.98726 5.0408C3.74557 5.28157 3.78342 5.51075 3.84166 5.6848C3.84457 5.69351 3.84749 5.69931 3.8504 5.70801C4.07462 6.24469 4.38619 6.75526 4.87249 7.36446C5.74608 8.43784 6.66625 9.27035 7.67963 9.91148C7.80479 9.99275 7.93877 10.0565 8.064 10.1204C8.18048 10.1784 8.28821 10.2335 8.38432 10.2944C8.39594 10.3002 8.40469 10.306 8.41631 10.3118C8.51242 10.3612 8.60559 10.3843 8.69876 10.3843C8.93172 10.3843 9.0832 10.2364 9.13269 10.1871L10.2217 9.10214C10.3907 8.93386 10.5741 8.84391 10.7547 8.84391C10.9759 8.84391 11.1565 8.98027 11.2701 9.10214L13.0259 10.8485C13.3754 11.1966 13.3724 11.5738 13.0172 11.9422C12.8949 12.0727 12.7668 12.1975 12.6299 12.328C12.4261 12.5253 12.2135 12.7284 12.0213 12.9575C11.6864 13.3172 11.2875 13.4855 10.7721 13.4855C10.7226 13.4855 10.6702 13.4826 10.6207 13.4797C9.66553 13.4188 8.77744 13.0474 8.11055 12.7312C6.29934 11.858 4.70942 10.6193 3.39031 9.04698C2.30415 7.74449 1.57325 6.53189 1.08986 5.23226C0.789936 4.4345 0.67637 3.79338 0.72296 3.2103Z" fill="#FF7010"/>
</g>
<defs>
<clipPath id="clip0_3_19">
<rect width="14" height="14" fill="white" transform="translate(0 0.1875)"/>
</clipPath>
</defs>
</svg>
