<svg width="33" height="33" viewBox="0 0 33 33" fill="none" xmlns="http://www.w3.org/2000/svg">
<g clip-path="url(#clip0_3_61)">
<path d="M1.32812 29.7414H3.53502V32.5H6.84537V29.7414H26.7074V32.5H30.0178V29.7414H32.2247V25.8793H1.32812V29.7414Z" fill="#FF7010"/>
<path d="M16.7764 20.9138C17.3858 20.9138 17.8799 20.5433 17.8799 20.0862C17.8799 19.6292 17.3858 19.2586 16.7764 19.2586C16.167 19.2586 15.673 19.6292 15.673 20.0862C15.673 20.5433 16.167 20.9138 16.7764 20.9138Z" fill="#FF7010"/>
<path d="M2.92481 25.3276H9.20784C9.99074 25.3276 10.6892 24.9254 11.0749 24.2512C11.4545 23.5886 11.4506 22.7996 11.0644 22.1408L7.92288 16.7797C7.53446 16.1171 6.84039 15.7215 6.06633 15.7215C5.29171 15.7215 4.59764 16.1171 4.20922 16.7797L1.06826 22.1408C0.68205 22.7996 0.678188 23.5886 1.05777 24.2512C1.44343 24.9254 2.14136 25.3276 2.92481 25.3276ZM4.2026 21.6244L5.17419 19.1599C5.36067 18.8404 5.69446 18.6501 6.06633 18.6501C6.43819 18.6501 6.77143 18.8404 6.95846 19.1593L6.99598 19.2377L7.9295 21.6244C8.0917 21.9345 8.08508 22.2964 7.90964 22.6021C7.72702 22.9226 7.38329 23.1207 7.01308 23.1207H5.11957C4.74936 23.1207 4.40564 22.9226 4.22246 22.6026C4.04702 22.2964 4.04039 21.9345 4.2026 21.6244Z" fill="#FF7010"/>
<path d="M11.8109 19.8104V20.3621C11.8109 23.1003 14.0387 25.3276 16.7764 25.3276C19.514 25.3276 21.7419 23.1003 21.7419 20.3621V19.8104C21.7419 17.0722 19.514 14.8448 16.7764 14.8448C14.0387 14.8448 11.8109 17.0722 11.8109 19.8104ZM19.535 20.0862C19.535 21.7591 18.2975 23.1207 16.7764 23.1207C15.2553 23.1207 14.0177 21.7591 14.0177 20.0862C14.0177 18.4134 15.2553 17.0517 16.7764 17.0517C18.2975 17.0517 19.535 18.4134 19.535 20.0862Z" fill="#FF7010"/>
<path d="M30.5695 14.8448H23.9488C23.0363 14.8448 22.2936 15.5875 22.2936 16.5V23.6724C22.2936 24.585 23.0363 25.3276 23.9488 25.3276H30.5695C31.4821 25.3276 32.2247 24.585 32.2247 23.6724V16.5C32.2247 15.5875 31.4821 14.8448 30.5695 14.8448ZM30.5695 22.569C30.5695 23.1775 30.0746 23.6724 29.4661 23.6724H25.0523C24.4437 23.6724 23.9488 23.1775 23.9488 22.569V17.6035C23.9488 16.9949 24.4437 16.5 25.0523 16.5H29.4661C30.0746 16.5 30.5695 16.9949 30.5695 17.6035V22.569Z" fill="#FF7010"/>
<path d="M26.1557 19.8104C26.2969 19.8104 26.4382 19.7563 26.5458 19.6487L27.0975 19.097C27.3132 18.8813 27.3132 18.5326 27.0975 18.3169C26.8818 18.1011 26.5331 18.1011 26.3173 18.3169L25.7656 18.8686C25.5499 19.0843 25.5499 19.433 25.7656 19.6487C25.8732 19.7569 26.0144 19.8104 26.1557 19.8104Z" fill="#FF7010"/>
<path d="M26.5458 20.5237C26.33 20.308 25.9813 20.308 25.7656 20.5237C25.5499 20.7395 25.5499 21.0881 25.7656 21.3039L26.3173 21.8556C26.4249 21.9637 26.5662 22.0172 26.7074 22.0172C26.8486 22.0172 26.9899 21.9632 27.0975 21.8556C27.3132 21.6399 27.3132 21.2912 27.0975 21.0755L26.5458 20.5237Z" fill="#FF7010"/>
<path d="M27.9726 19.4203L27.4208 19.972C27.2051 20.1877 27.2051 20.5364 27.4208 20.7521C27.5284 20.8603 27.6697 20.9138 27.8109 20.9138C27.9521 20.9138 28.0934 20.8597 28.201 20.7521L28.7527 20.2004C28.9684 19.9847 28.9684 19.636 28.7527 19.4203C28.537 19.2046 28.1877 19.2051 27.9726 19.4203Z" fill="#FF7010"/>
<path d="M8.28812 13.1897C8.34164 13.1897 8.39571 13.1819 8.44922 13.1654L10.8454 12.4344L8.74605 13.8341C8.49281 14.0035 8.4244 14.3455 8.59322 14.5993C8.69971 14.7588 8.8746 14.8448 9.05281 14.8448C9.15764 14.8448 9.26412 14.8145 9.35846 14.7521L14.5121 11.3166L31.2823 6.20208C31.5736 6.11325 31.7381 5.80484 31.6492 5.51353C31.5604 5.22222 31.2509 5.0556 30.9607 5.14718L17.7 9.19132L29.2205 1.51077C29.4738 1.34139 29.5422 0.999321 29.3734 0.745528C29.204 0.491735 28.8619 0.423321 28.6081 0.5927L14.0332 10.3097L8.12757 12.111C7.83626 12.1999 7.67184 12.5083 7.76067 12.7996C7.83295 13.0368 8.05143 13.1897 8.28812 13.1897Z" fill="#FF7010"/>
</g>
<defs>
<clipPath id="clip0_3_61">
<rect width="32" height="32" fill="white" transform="translate(0.5 0.5)"/>
</clipPath>
</defs>
</svg>
