<svg width="58" height="58" viewBox="0 0 58 58" fill="none" xmlns="http://www.w3.org/2000/svg">
<path d="M1.5011 53H5.5011V58H11.5011V53H47.5011V58H53.5011V53H57.5011V46H1.5011V53Z" fill="#FF7010"/>
<path d="M29.5011 37C30.6057 37 31.5011 36.3284 31.5011 35.5C31.5011 34.6716 30.6057 34 29.5011 34C28.3965 34 27.5011 34.6716 27.5011 35.5C27.5011 36.3284 28.3965 37 29.5011 37Z" fill="#FF7010"/>
<path d="M4.39505 45H15.783C17.202 45 18.468 44.271 19.167 43.049C19.855 41.848 19.848 40.418 19.148 39.224L13.454 29.507C12.75 28.306 11.492 27.5891 10.089 27.5891C8.68505 27.5891 7.42705 28.306 6.72305 29.507L1.03005 39.224C0.330046 40.418 0.323046 41.848 1.01105 43.049C1.71005 44.271 2.97505 45 4.39505 45ZM6.71105 38.288L8.47205 33.821C8.81005 33.242 9.41505 32.897 10.089 32.897C10.763 32.897 11.367 33.242 11.706 33.82L11.774 33.9621L13.466 38.288C13.76 38.85 13.748 39.5061 13.43 40.0601C13.099 40.6411 12.476 41 11.805 41H8.37305C7.70205 41 7.07905 40.6411 6.74705 40.0611C6.42905 39.5061 6.41705 38.85 6.71105 38.288Z" fill="#FF7010"/>
<path d="M20.5011 35V36C20.5011 40.963 24.5391 45 29.5011 45C34.4631 45 38.5011 40.963 38.5011 36V35C38.5011 30.037 34.4631 26 29.5011 26C24.5391 26 20.5011 30.037 20.5011 35ZM34.5011 35.5C34.5011 38.532 32.2581 41 29.5011 41C26.7441 41 24.5011 38.532 24.5011 35.5C24.5011 32.468 26.7441 30 29.5011 30C32.2581 30 34.5011 32.468 34.5011 35.5Z" fill="#FF7010"/>
<path d="M54.5011 26H42.5011C40.8471 26 39.5011 27.346 39.5011 29V42C39.5011 43.654 40.8471 45 42.5011 45H54.5011C56.1551 45 57.5011 43.654 57.5011 42V29C57.5011 27.346 56.1551 26 54.5011 26ZM54.5011 40C54.5011 41.103 53.6041 42 52.5011 42H44.5011C43.3981 42 42.5011 41.103 42.5011 40V31C42.5011 29.897 43.3981 29 44.5011 29H52.5011C53.6041 29 54.5011 29.897 54.5011 31V40Z" fill="#FF7010"/>
<path d="M46.501 35C46.757 35 47.013 34.902 47.208 34.707L48.208 33.707C48.599 33.316 48.599 32.684 48.208 32.293C47.817 31.902 47.185 31.902 46.794 32.293L45.794 33.293C45.403 33.684 45.403 34.316 45.794 34.707C45.989 34.903 46.245 35 46.501 35Z" fill="#FF7010"/>
<path d="M47.208 36.293C46.817 35.902 46.185 35.902 45.794 36.293C45.403 36.684 45.403 37.316 45.794 37.707L46.794 38.707C46.989 38.903 47.245 39 47.501 39C47.757 39 48.013 38.902 48.208 38.707C48.599 38.316 48.599 37.684 48.208 37.293L47.208 36.293Z" fill="#FF7010"/>
<path d="M49.794 34.293L48.794 35.293C48.403 35.684 48.403 36.316 48.794 36.707C48.989 36.903 49.245 37 49.501 37C49.757 37 50.013 36.902 50.208 36.707L51.208 35.707C51.599 35.316 51.599 34.684 51.208 34.293C50.817 33.902 50.184 33.903 49.794 34.293Z" fill="#FF7010"/>
<path d="M14.116 23C14.213 23 14.311 22.986 14.408 22.956L18.751 21.631L14.946 24.168C14.487 24.475 14.363 25.095 14.669 25.555C14.862 25.844 15.179 26 15.502 26C15.692 26 15.885 25.945 16.056 25.832L25.397 19.605L55.793 10.335C56.321 10.174 56.619 9.61502 56.458 9.08702C56.297 8.55902 55.736 8.25702 55.21 8.42302L31.175 15.753L52.056 1.83202C52.515 1.52502 52.639 0.905023 52.333 0.445023C52.026 -0.0149768 51.406 -0.138977 50.946 0.168023L24.529 17.78L13.825 21.045C13.297 21.206 12.999 21.765 13.16 22.293C13.291 22.723 13.687 23 14.116 23Z" fill="#FF7010"/>
</svg>
