<svg width="58" height="58" viewBox="0 0 58 58" fill="none" xmlns="http://www.w3.org/2000/svg">
<path d="M22.1043 8.9942H9.30918C6.59542 8.9942 4.38745 11.2022 4.38745 13.9159V26.7112C4.38745 29.4249 6.59542 31.6329 9.30918 31.6329H22.1042C24.818 31.6329 27.0259 29.425 27.0259 26.7112V13.9158C27.0259 11.2021 24.8181 8.9942 22.1043 8.9942ZM15.7067 24.4024C13.4522 24.4024 11.6179 22.568 11.6179 20.3135C11.6179 18.059 13.452 16.2246 15.7067 16.2246C17.9615 16.2246 19.7956 18.0587 19.7956 20.3135C19.7956 22.5682 17.9613 24.4024 15.7067 24.4024Z" fill="#FF7010"/>
<path d="M44.804 16.6724H38.2676C33.3778 16.6724 29.2779 20.1081 28.2483 24.6917C30.6152 23.1627 33.8092 22.2612 37.2068 22.2612H45.859C49.2649 22.2612 52.4584 23.163 54.8238 24.694C53.7951 20.1092 49.6947 16.6724 44.804 16.6724Z" fill="#FF7010"/>
<path d="M54.5127 29.4952C53.2518 27.5108 49.6597 26.0438 45.8653 26.0438H41.5361H37.2068C33.4124 26.0438 29.8204 27.5108 28.5595 29.4952C28.0184 30.3466 27.9966 31.6327 27.9966 31.6327H55.0756C55.0756 31.6327 55.0538 30.3466 54.5127 29.4952Z" fill="#FF7010"/>
<path d="M0 35.4153V42.738H8.88805V49.0058H16.3294V42.738H41.7325V49.0058H49.1739V42.738H58V35.4153H0Z" fill="#FF7010"/>
</svg>
