<svg width="33" height="33" viewBox="0 0 33 33" fill="none" xmlns="http://www.w3.org/2000/svg">
<g clip-path="url(#clip0_3_117)">
<path d="M12.6955 5.46231H5.63612C4.13887 5.46231 2.92068 6.6805 2.92068 8.17775V15.2372C2.92068 16.7344 4.13887 17.9526 5.63612 17.9526H12.6954C14.1927 17.9526 15.4109 16.7345 15.4109 15.2372V8.17769C15.4109 6.68044 14.1927 5.46231 12.6955 5.46231ZM9.16581 13.9634C7.92193 13.9634 6.90987 12.9513 6.90987 11.7074C6.90987 10.4636 7.92181 9.4515 9.16581 9.4515C10.4098 9.4515 11.4217 10.4634 11.4217 11.7074C11.4217 12.9514 10.4097 13.9634 9.16581 13.9634Z" fill="#FF7010"/>
<path d="M25.2194 9.69855H21.6131C18.9153 9.69855 16.6533 11.5941 16.0853 14.123C17.3911 13.2794 19.1533 12.782 21.0279 12.782H25.8015C27.6806 12.782 29.4426 13.2796 30.7476 14.1243C30.1801 11.5947 27.9178 9.69855 25.2194 9.69855Z" fill="#FF7010"/>
<path d="M30.5759 16.7732C29.8803 15.6784 27.8984 14.869 25.805 14.869H23.4164H21.0279C18.9344 14.869 16.9526 15.6784 16.2569 16.7732C15.9584 17.2429 15.9464 17.9525 15.9464 17.9525H30.8865C30.8865 17.9525 30.8745 17.2429 30.5759 16.7732Z" fill="#FF7010"/>
<path d="M0.5 20.0395V24.0796H5.40375V27.5377H9.50931V24.0796H23.5248V27.5377H27.6304V24.0796H32.5V20.0395H0.5Z" fill="#FF7010"/>
</g>
<defs>
<clipPath id="clip0_3_117">
<rect width="32" height="32" fill="white" transform="translate(0.5 0.5)"/>
</clipPath>
</defs>
</svg>
