<svg width="33" height="21" viewBox="0 0 33 21" fill="none" xmlns="http://www.w3.org/2000/svg">
<path d="M19.9592 13.8818C15.7035 13.8818 11.6928 14.5078 8.36072 15.6921C7.5382 15.9844 6.68197 16.1328 5.81602 16.1327C4.74815 16.1327 3.71339 15.9049 2.76892 15.4854C3.54472 18.37 6.18714 20.5 9.31917 20.5H24.8109C27.975 20.5 30.6398 18.3261 31.3847 15.3964C31.0829 15.3954 30.7828 15.3536 30.4925 15.2714C27.2797 14.3624 23.6373 13.8818 19.9592 13.8818Z" fill="#FF7010"/>
<path d="M10.5413 12.7524C11.8704 12.429 13.26 12.1777 14.6871 12.0004C11.9049 8.9597 11.6457 3.8412 14.1837 0.5C12.1402 0.56286 10.1451 0.89693 8.28753 1.47437C7.33578 2.38611 6.66037 3.56045 6.35967 4.8514C5.54679 8.0583 7.44337 11.6184 10.5413 12.7524Z" fill="#FF7010"/>
<path d="M7.60386 13.6221C4.82169 11.5409 3.3729 7.9435 4.20934 4.35267C4.31487 3.89963 4.45712 3.45812 4.62984 3.03027C3.8926 3.44175 3.19658 3.89948 2.55082 4.40158C-1.4576 7.4999 0.824821 13.9418 5.81605 13.9297C6.41007 13.9297 7.01367 13.8298 7.60386 13.6221Z" fill="#FF7010"/>
<path d="M26.4456 3.72607C25.4726 4.20452 24.688 4.9897 24.2114 5.9733C23.41 7.627 23.6105 9.5496 24.6766 10.987C24.8414 11.2092 25.4471 11.8774 25.5034 12.029C27.4269 12.274 29.3099 12.647 31.095 13.1521C31.4659 13.2571 31.8652 13.1612 32.1477 12.8991C32.4303 12.637 32.5551 12.2466 32.4772 11.8696C31.8028 8.6095 29.5905 5.759 26.4456 3.72607Z" fill="#FF7010"/>
<path d="M17.6896 11.7381C19.293 11.6552 20.9196 11.6612 22.538 11.7552C21.3139 9.7415 21.1577 7.2143 22.2239 5.0142C22.7036 4.02423 23.3985 3.17316 24.2499 2.51215C22.1113 1.50796 19.6783 0.837913 17.0857 0.592773C13.577 3.48109 13.9069 9.2692 17.6896 11.7381Z" fill="#FF7010"/>
</svg>
