<svg width="58" height="58" viewBox="0 0 58 58" fill="none" xmlns="http://www.w3.org/2000/svg">
<mask id="mask0_81521_45" style="mask-type:luminance" maskUnits="userSpaceOnUse" x="0" y="0" width="58" height="58">
<path d="M57.1212 0H0.878784V58H57.1212V0Z" fill="white"/>
</mask>
<g mask="url(#mask0_81521_45)">
<path d="M35.0798 35.1295C27.6001 35.1295 20.551 36.2641 14.6946 38.4107C13.2489 38.9405 11.7441 39.2095 10.2221 39.2093C8.34522 39.2093 6.52655 38.7964 4.86658 38.036C6.2301 43.2644 10.8744 47.125 16.3791 47.125H43.607C49.1682 47.125 53.8518 43.1848 55.161 37.8747C54.6305 37.8729 54.1031 37.7972 53.5929 37.6482C47.9461 36.0006 41.5443 35.1295 35.0798 35.1295Z" fill="#FF7010"/>
<path d="M18.5271 33.0825C20.8631 32.4963 23.3054 32.0408 25.8137 31.7195C20.9238 26.2082 20.4682 16.9309 24.9289 10.875C21.3373 10.9889 17.8308 11.5944 14.566 12.641C12.8932 14.2936 11.7061 16.4221 11.1776 18.7619C9.74889 24.5744 13.0823 31.0271 18.5271 33.0825Z" fill="#FF7010"/>
<path d="M13.3644 34.6588C8.47448 30.8866 5.92812 24.3663 7.39823 17.858C7.58371 17.0368 7.83372 16.2366 8.13729 15.4611C6.84154 16.2069 5.61823 17.0366 4.48326 17.9466C-2.56185 23.5623 1.44968 35.2383 10.2221 35.2163C11.2662 35.2163 12.3271 35.0353 13.3644 34.6588Z" fill="#FF7010"/>
<path d="M46.4801 16.7222C44.77 17.5894 43.391 19.0126 42.5534 20.7953C41.1448 23.7927 41.4972 27.2774 43.371 29.8827C43.6606 30.2854 44.7252 31.4965 44.8241 31.7713C48.2048 32.2154 51.5144 32.8914 54.6518 33.8069C55.3037 33.9972 56.0055 33.8234 56.502 33.3483C56.9987 32.8733 57.218 32.1657 57.0811 31.4824C55.8958 25.5734 52.0075 20.4069 46.4801 16.7222Z" fill="#FF7010"/>
<path d="M31.0908 31.2441C33.9089 31.0938 36.7678 31.1047 39.6123 31.2751C37.4608 27.6252 37.1863 23.0447 39.0602 19.057C39.9033 17.2627 41.1246 15.7201 42.621 14.522C38.8623 12.7019 34.5861 11.4875 30.0294 11.0432C23.8626 16.2782 24.4424 26.7692 31.0908 31.2441Z" fill="#FF7010"/>
</g>
</svg>
