<svg width="12" height="11" viewBox="0 0 12 11" fill="none" xmlns="http://www.w3.org/2000/svg">
<path d="M11.173 0.168214L1.22646 4.30801C1.22646 4.30801 0.756198 4.47895 0.792598 4.79423C0.829978 5.11007 1.21372 5.25455 1.21372 5.25455L3.7165 6.14803C3.7165 6.14803 4.47194 8.77611 4.62062 9.27619C4.7693 9.77487 4.88858 9.78663 4.88858 9.78663C5.02704 9.85047 5.1529 9.74883 5.1529 9.74883L6.7699 8.18517L9.29004 10.2351C9.9717 10.5505 10.2198 9.89331 10.2198 9.89331L11.9906 0.418394C11.9906 -0.212726 11.173 0.168214 11.173 0.168214ZM9.41212 9.13129L6.716 6.93889L5.87936 7.74767L6.06332 6.02693L9.65712 2.62087L4.75838 5.52923L2.58544 4.75363L10.8758 1.30291L9.41212 9.13129Z" fill="#229ED9"/>
</svg>
