<svg width="49" height="32" viewBox="0 0 49 32" fill="none" xmlns="http://www.w3.org/2000/svg">
<path d="M36.751 7.74799C35.289 7.74799 33.894 7.85599 32.608 8.05199C31.52 8.21799 30.661 7.72299 30.661 6.84499V5.25499C30.661 2.74899 25.489 0.717987 19.11 0.717987C12.731 0.717987 7.56 2.74799 7.56 5.25499V11.277C7.56 12.201 6.673 13.067 5.61 13.318C2.251 14.11 0 15.552 0 17.205V27.046C0 29.555 5.171 31.585 11.55 31.585C17.929 31.585 23.1 29.555 23.1 27.048V21.025C23.1 20.101 23.577 19.285 24.157 19.173C24.737 19.061 25.2 19.658 25.2 20.536V22.126C25.2 24.632 30.372 26.663 36.75 26.663C43.129 26.663 48.302 24.632 48.302 22.126V12.285C48.302 9.77999 43.13 7.74799 36.751 7.74799ZM11.55 21.274C6.654 21.274 2.684 19.714 2.684 17.791C2.684 15.868 6.653 14.308 11.55 14.308C16.447 14.308 20.416 15.867 20.416 17.791C20.416 19.715 16.446 21.274 11.55 21.274ZM19.111 9.32499C14.214 9.32499 10.245 7.76599 10.245 5.84199C10.244 3.91799 14.214 2.35899 19.111 2.35899C24.008 2.35899 27.978 3.91799 27.978 5.84199C27.977 7.76599 24.008 9.32499 19.111 9.32499ZM36.752 16.355C31.856 16.355 27.886 14.796 27.886 12.872C27.886 10.948 31.855 9.38899 36.752 9.38899C41.649 9.38899 45.619 10.948 45.619 12.872C45.619 14.796 41.649 16.355 36.752 16.355Z" fill="#FF7010"/>
</svg>
