<svg width="13" height="5" viewBox="0 0 13 5" fill="none" xmlns="http://www.w3.org/2000/svg">
<path d="M11.472 1.33899C10.784 1.05799 9.96999 1.25599 9.56199 1.77499C9.45899 1.82999 9.28698 1.89199 9.04898 1.95299C9.00798 1.82799 8.94598 1.70699 8.86498 1.59199C8.37698 0.904987 7.24998 0.522987 5.51398 0.458987C4.55698 0.420987 1.33098 0.414988 0.502985 1.83699C0.216985 2.32699 0.244985 2.87899 0.579985 3.34999C1.33898 4.41699 3.47198 4.71399 5.12799 4.77599C5.22998 4.77999 5.46598 4.78699 5.79498 4.78699C7.40698 4.78699 11.23 4.61399 12.161 3.01799C12.524 2.39299 12.217 1.64299 11.472 1.33899Z" fill="#FF7010"/>
</svg>
